REM DIRINDEX 1\2\6,1\2\7,1\2\8,1\2\9,1\3\10,1\3\11,1\4\12,1\4\13,1\4\14,1\5\15,1\5\16,1\5\17
REM DIRNAME cjc020,folder01,folder02,folder03,folder04,folder05,folder06,folder07,folder08,folder09,folder10,folder11,folder12,folder13,folder14,folder15,folder16
TITLE ""
FILE "1900_2_sec14_1367_1383.mp3" MP3
  TRACK 01 AUDIO
    TITLE "0:"
    INDEX 01 00:00:00
  TRACK 02 AUDIO
    TITLE "13:cjc020_4875"
    INDEX 01 00:00:23
  TRACK 03 AUDIO
    TITLE "0:"
    INDEX 01 00:01:22
  TRACK 04 AUDIO
    TITLE "14:cjc020_4876"
    INDEX 01 00:01:26
  TRACK 05 AUDIO
    TITLE "0:"
    INDEX 01 00:05:01
  TRACK 06 AUDIO
    TITLE "13:cjc020_4877"
    INDEX 01 00:05:57
  TRACK 07 AUDIO
    TITLE "0:"
    INDEX 01 00:06:73
  TRACK 08 AUDIO
    TITLE "14:cjc020_4878"
    INDEX 01 00:07:05
  TRACK 09 AUDIO
    TITLE "0:"
    INDEX 01 00:10:61
  TRACK 10 AUDIO
    TITLE "13:cjc020_4879"
    INDEX 01 00:11:46
  TRACK 11 AUDIO
    TITLE "0:"
    INDEX 01 00:12:69
  TRACK 12 AUDIO
    TITLE "14:cjc020_4880"
    INDEX 01 00:12:73
  TRACK 13 AUDIO
    TITLE "0:"
    INDEX 01 00:14:00
  TRACK 14 AUDIO
    TITLE "13:cjc020_4881"
    INDEX 01 00:14:58
  TRACK 15 AUDIO
    TITLE "0:"
    INDEX 01 00:16:02
  TRACK 16 AUDIO
    TITLE "14:cjc020_4882"
    INDEX 01 00:16:06
  TRACK 17 AUDIO
    TITLE "0:"
    INDEX 01 00:18:23
  TRACK 18 AUDIO
    TITLE "13:cjc020_4883"
    INDEX 01 00:19:03
  TRACK 19 AUDIO
    TITLE "0:"
    INDEX 01 00:20:06
  TRACK 20 AUDIO
    TITLE "14:cjc020_4884"
    INDEX 01 00:20:10
  TRACK 21 AUDIO
    TITLE "0:"
    INDEX 01 00:21:02
  TRACK 22 AUDIO
    TITLE "13:cjc020_4885"
    INDEX 01 00:21:58
  TRACK 23 AUDIO
    TITLE "0:"
    INDEX 01 00:23:03
  TRACK 24 AUDIO
    TITLE "14:cjc020_4886"
    INDEX 01 00:23:06
  TRACK 25 AUDIO
    TITLE "0:"
    INDEX 01 00:26:09
  TRACK 26 AUDIO
    TITLE "13:cjc020_4887"
    INDEX 01 00:26:64
  TRACK 27 AUDIO
    TITLE "0:"
    INDEX 01 00:28:04
  TRACK 28 AUDIO
    TITLE "14:cjc020_4888"
    INDEX 01 00:28:10
  TRACK 29 AUDIO
    TITLE "0:"
    INDEX 01 00:31:55
  TRACK 30 AUDIO
    TITLE "13:cjc020_4889"
    INDEX 01 00:32:45
  TRACK 31 AUDIO
    TITLE "0:"
    INDEX 01 00:33:48
  TRACK 32 AUDIO
    TITLE "14:cjc020_4890"
    INDEX 01 00:33:50
  TRACK 33 AUDIO
    TITLE "0:"
    INDEX 01 00:37:20
  TRACK 34 AUDIO
    TITLE "13:cjc020_4891"
    INDEX 01 00:37:73
  TRACK 35 AUDIO
    TITLE "0:"
    INDEX 01 00:39:03
  TRACK 36 AUDIO
    TITLE "14:cjc020_4892"
    INDEX 01 00:39:09
  TRACK 37 AUDIO
    TITLE "0:"
    INDEX 01 00:40:09
  TRACK 38 AUDIO
    TITLE "13:cjc020_4893"
    INDEX 01 00:40:68
  TRACK 39 AUDIO
    TITLE "0:"
    INDEX 01 00:42:06
  TRACK 40 AUDIO
    TITLE "14:cjc020_4894"
    INDEX 01 00:42:10
  TRACK 41 AUDIO
    TITLE "0:"
    INDEX 01 00:43:68
  TRACK 42 AUDIO
    TITLE "13:cjc020_4895"
    INDEX 01 00:44:44
  TRACK 43 AUDIO
    TITLE "0:"
    INDEX 01 00:45:47
  TRACK 44 AUDIO
    TITLE "14:cjc020_4896"
    INDEX 01 00:45:49
  TRACK 45 AUDIO
    TITLE "0:"
    INDEX 01 00:49:31
  TRACK 46 AUDIO
    TITLE "13:cjc020_4897"
    INDEX 01 00:50:07
  TRACK 47 AUDIO
    TITLE "0:"
    INDEX 01 00:51:16
  TRACK 48 AUDIO
    TITLE "14:cjc020_4898"
    INDEX 01 00:51:20
  TRACK 49 AUDIO
    TITLE "0:"
    INDEX 01 00:54:46
  TRACK 50 AUDIO
    TITLE "12:cjc020_4899"
    INDEX 01 00:56:20
  TRACK 51 AUDIO
    TITLE "0:"
    INDEX 01 00:57:66
  TRACK 52 AUDIO
    TITLE "13:cjc020_4900"
    INDEX 01 00:58:66
  TRACK 53 AUDIO
    TITLE "0:"
    INDEX 01 01:00:12
  TRACK 54 AUDIO
    TITLE "14:cjc020_4901"
    INDEX 01 01:00:21
  TRACK 55 AUDIO
    TITLE "0:"
    INDEX 01 01:02:63
  TRACK 56 AUDIO
    TITLE "13:cjc020_4902"
    INDEX 01 01:03:41
  TRACK 57 AUDIO
    TITLE "0:"
    INDEX 01 01:04:41
  TRACK 58 AUDIO
    TITLE "14:cjc020_4903"
    INDEX 01 01:04:48
  TRACK 59 AUDIO
    TITLE "0:"
    INDEX 01 01:07:25
  TRACK 60 AUDIO
    TITLE "13:cjc020_4904"
    INDEX 01 01:08:05
  TRACK 61 AUDIO
    TITLE "0:"
    INDEX 01 01:09:05
  TRACK 62 AUDIO
    TITLE "14:cjc020_4905"
    INDEX 01 01:09:09
  TRACK 63 AUDIO
    TITLE "0:"
    INDEX 01 01:10:47
  TRACK 64 AUDIO
    TITLE "13:cjc020_4906"
    INDEX 01 01:11:29
  TRACK 65 AUDIO
    TITLE "0:"
    INDEX 01 01:12:42
  TRACK 66 AUDIO
    TITLE "14:cjc020_4907"
    INDEX 01 01:12:46
  TRACK 67 AUDIO
    TITLE "0:"
    INDEX 01 01:13:40
  TRACK 68 AUDIO
    TITLE "13:cjc020_4908"
    INDEX 01 01:14:19
  TRACK 69 AUDIO
    TITLE "0:"
    INDEX 01 01:15:31
  TRACK 70 AUDIO
    TITLE "14:cjc020_4909"
    INDEX 01 01:15:37
  TRACK 71 AUDIO
    TITLE "0:"
    INDEX 01 01:16:46
